<svg xmlns="http://www.w3.org/2000/svg" xmlns:xlink="http://www.w3.org/1999/xlink" version="1.1" x="0px" y="0px" width="100px" height="100px" viewBox="0 0 100 100" enable-background="new 0 0 100 100" xml:space="preserve">
<g id="Captions">
</g>
<g id="Your_Icon">
	<g>
		<path d="M90.477,25.596H73.596l-7.167-12.949c-1.678-3.03-4.868-4.911-8.333-4.911H41.922c-3.462,0-6.652,1.879-8.33,4.907    l-7.178,12.952H9.524C4.264,25.596,0,29.861,0,35.12v47.618c0,5.26,4.264,9.525,9.524,9.525h80.953    c5.259,0,9.523-4.266,9.523-9.525V35.12C100,29.861,95.735,25.596,90.477,25.596z M50,84.492c-14.465,0-26.19-11.727-26.19-26.189    c0-14.465,11.726-26.191,26.19-26.191s26.19,11.726,26.19,26.191C76.19,72.766,64.465,84.492,50,84.492z"/>
		<path d="M50,39.254c-10.503,0-19.048,8.545-19.048,19.048c0,10.502,8.545,19.047,19.048,19.047s19.048-8.545,19.048-19.047    C69.048,47.799,60.503,39.254,50,39.254z"/>
	</g>
</g>
</svg>